<?xml version="1.0" encoding="utf-8"?>
<!-- Generator: Adobe Illustrator 23.1.0, SVG Export Plug-In . SVG Version: 6.00 Build 0)  -->
<svg version="1.1" id="Layer_1" xmlns="http://www.w3.org/2000/svg" xmlns:xlink="http://www.w3.org/1999/xlink" x="0px" y="0px"
	 viewBox="0 0 737.36 1078.47" style="enable-background:new 0 0 737.36 1078.47;" xml:space="preserve">
<path d="M203.2,857.18c-1.65-6.83-3.45-13.14-4.64-19.57c-1.2-6.48-2.24-13.04-2.56-19.61c-0.43-8.9-0.94-17.93,0.1-26.73
	c1.38-11.74,4.27-23.3,6.4-34.96c1.99-10.9,7.89-19.98,13.41-29.23c6.01-10.07,13.8-18.64,22.62-26.33
	c2.24-1.95,4.04-4.43,6.38-6.23c7.47-5.75,14.81-11.74,22.73-16.83c15.48-9.94,31.62-18.88,46.92-29.09
	c14.03-9.35,27.66-19.39,40.79-29.95c9.04-7.27,17.37-15.56,25.22-24.13c7.24-7.91,13.43-16.78,20.03-25.27
	c2.85-3.66,5.82-7.26,8.29-11.17c9.5-15,15.33-31.57,19.7-48.62c1.2-4.68,0.18-9.93,0.18-14.71c-7.08,2.64-13.91,6.07-21.16,7.71
	c-17.05,3.86-34.37,8.38-51.83,2.93c-11.9-3.72-20.36-11.69-25.21-23.68c-2.05-5.07-5.55-10.16-9.72-13.63
	c-5.24-4.36-11.72-7.36-17.96-10.31c-1.9-0.9-5.14-0.34-7.18,0.7c-10.34,5.3-20.49,10.98-30.7,16.54c-0.42,0.23-0.75,0.62-1.46,1.22
	c5.48,6.97,3.24,13.72-0.24,20.81c-1.43,2.92-1.19,6.75-1.35,10.18c-0.2,4.4-0.21,8.82,0,13.22c0.34,7.02,1.35,14.04,1.25,21.05
	c-0.07,4.44-1.28,8.99-2.78,13.21c-0.48,1.36-4.24,3.05-5.23,2.46c-2.48-1.48-5.24-3.86-6.04-6.45c-1.24-4.02-1.07-8.51-1.27-12.81
	c-0.74-16.07-1.34-32.15-2.1-48.22c-0.09-1.95-0.8-3.88-1.26-6.01c-8.21,2.57-16.24,5.52-24.5,7.55
	c-9.92,2.44-19.99,4.31-30.06,6.01c-5.27,0.89-10.7,0.87-16.05,1.29c-12.87,1.01-25.72,2.57-38.6,2.9
	c-13.26,0.34-26.55-0.5-39.83-0.82c-1-0.02-2.01-0.04-3,0.07c-0.63,0.07-1.23,0.36-2.73,0.83c1.37,14.76,3.18,29.52,3.96,44.33
	c0.54,10.17-0.36,20.42-0.62,30.63c-0.02,1-0.25,2.07,0.03,2.98c1.65,5.34,1.03,10.38,0.2,15.96c-1.29,8.67,0.18,17.72,0.14,26.61
	c-0.05,11.69,3.3,23.32-0.12,35.11c-1.21,4.17-0.38,8.93-0.46,13.42c-0.04,2,0.16,4.02-0.07,6c-0.66,5.77-3.52,9.08-7.57,9
	c-4.03-0.08-8.34-4.69-8.27-9.78c0.09-6.61,1.06-13.2,1.26-19.81c0.29-9.36,0.25-18.74,0.26-28.1c0-1.8-0.59-3.6-0.59-5.4
	c-0.06-12.35-0.11-24.7,0.01-37.05c0.06-5.62,0.79-11.24,0.74-16.86c-0.08-10.63-0.22-21.27-0.87-31.87
	c-0.66-10.89-1.91-21.74-3-32.6c-0.34-3.35-2.05-5.21-5.75-5.57c-7.71-0.75-15.39-1.9-23.07-2.97c-7.44-1.04-11.9-7.38-7.89-11.81
	c4.56-5.04,9.89-9.64,15.63-13.26c5.27-3.32,11.42-5.39,17.39-7.39c3.32-1.11,3.62-2.96,3.85-5.89c1.15-14.66,1.25-29.58,4.23-43.88
	c2.98-14.31,6.36-29.2,15.56-41.13c6.51-8.44,13.98-16.62,22.51-22.9c10.48-7.72,22.52-13.3,33.8-19.96
	c1.23-0.73,2.5-2.37,2.69-3.74c1-7.07,0.39-14.11-1.32-21.04c-1.9-7.7-3.83-15.4-5.72-23.1c-1.4-5.69-3.95-6.79-8.75-3.3
	c-9.5,6.91-13.1,17.14-15.02,28.11c-0.74,4.22,0.04,8.84-1.3,12.8c-1.23,3.64-3.84,7.31-6.84,9.69c-2.67,2.11-6.74,1.55-8.36-2.35
	c-4.08-9.79-6.67-19.7-5.99-30.72c0.72-11.73,5.54-21.58,11.11-31.94c-8.97-0.69-16.32,2.74-23.68,6.05
	c-1.66,0.75-3.17,1.83-4.8,2.65c-6.82,3.42-12.82-0.25-13.21-8.08c-0.4-8.08,3.79-14.44,8.53-20.19
	c9.83-11.91,22.94-17.64,38.23-18.53c1.94-0.11,3.91,0.4,6.94,0.74c-8.29-6.82-15.66-13.31-25.27-16.53
	c-1.57-0.53-3.16-1.1-4.59-1.92c-5.31-3.02-6.57-9.13-1.74-12.71c8.03-5.95,16.23-12.28,27.55-9.82c4.15,0.9,8.8-0.11,12.79,1.14
	c12.86,4.02,20.79,13.21,24.95,25.84c0.52,1.57,1.16,3.09,1.98,5.27c4.73-3.22,9.07-6.42,13.65-9.25c9.77-6.03,20.64-10.4,31.9-9.45
	c11.45,0.96,22.03,6.08,28.61,16.59c1.85,2.95,3.2,6.22,4.6,9.42c3.44,7.88-2.01,16.3-10.64,16.64c-6.96,0.28-13.94,0.38-20.86,1.07
	c-6.88,0.69-13.71,2.01-20.72,3.42c8.27,1.92,14.92,6.39,20.27,12.66c2.32,2.72,4.66,5.88,5.62,9.23
	c2.18,7.61,3.73,15.42,5.11,23.23c0.86,4.87-2.22,9.61-6.72,11.72c-3.51,1.64-5.97-0.03-8.41-2.39
	c-7.14-6.91-14.37-13.73-21.57-20.58c-0.72-0.68-1.44-1.62-2.31-1.85c-2.53-0.66-5.14-1.03-7.72-1.51
	c-0.48,2.57-0.97,5.13-1.42,7.71c-1.36,7.67,1.19,14.96,2.18,22.41c0.61,4.58,0.72,9.24,1.07,13.85c0.25,3.23,2.39,3.71,5.18,4.1
	c14.37,2.02,28.75,5.06,40.74,13.33c11.07,7.63,20.63,17.37,26.27,30.13c0.26,0.59,0.66,1.12,1.38,2.31c1.23-3.34,2.5-6.1,3.26-8.99
	c4.82-18.39,13.29-35.13,23.71-50.84c8.11-12.24,18.03-22.84,30.79-30.66c6.05-3.71,11.18-8.92,17.15-12.8
	c5.69-3.69,11.74-7.03,18.01-9.61c8.39-3.45,17.05-6.35,25.78-8.83c4.87-1.38,10.1-1.78,15.2-2.04c16.4-0.84,32.81-1.93,49.22-1.94
	c15.88-0.01,30.3,5.76,44.54,12.62c14.84,7.14,25.74,18.83,37.14,29.83c7.42,7.16,12.89,16.36,19.2,24.68
	c1.7,2.24,3.29,4.57,4.91,6.88c5.54,7.92,7.11,17.28,9.58,26.32c1.7,6.22,3.82,12.34,5.31,18.61c0.9,3.78,0.95,7.76,1.49,12.55
	c15.63-16.07,31.34-30.3,54.28-35.98c-1.72-7.22-3.24-15.24-5.62-23.01c-1.56-5.11-4.45-5.71-9.4-3.63
	c-9.38,3.96-14.57,11.7-18.88,20.33c-1.56,3.12-3.25,6.18-5.05,9.17c-2.87,4.79-8.86,6.87-12.83,4.59c-3.34-1.92-4.58-7.47-3-12.71
	c2.66-8.85,4.43-18.07,8.05-26.5c3.53-8.22,8.92-15.65,13.87-24.05c-0.81-0.06-2.87-0.8-4.43-0.22c-4.49,1.66-8.97,3.53-13.1,5.93
	c-6.75,3.9-10.74,4.51-14.19,1.3c-3.68-3.43-3.87-8.85,0.19-15.1c7.4-11.4,16.97-19.91,31.1-21.98c3.53-0.52,6.97-1.61,10.87-2.54
	c-3.03-5.53-7.92-9.4-13.64-11.98c-4.8-2.16-10.52-3.76-10.74-9.73c-0.19-5.28,5.14-6.99,9.22-9.36c9.62-5.59,19.42-4.82,29.79-2.67
	c8.97,1.86,16.83,5.46,23.16,11.78c3.49,3.48,5.85,8.14,8.53,12.38c1.04,1.64,1.56,3.6,2.54,5.93c7.13-5.53,15.15-6.81,23.4-5.48
	c11.88,1.92,24.22,4.13,29.66,16.82c2.33,5.43,3.07,11.91,2.99,17.89c-0.08,6.27-8.71,8.75-15.75,5.95
	c-4.3-1.71-9.2-2.03-13.87-2.64c-1.28-0.17-2.71,0.83-4.65,1.49c1.19,1.44,1.86,2.54,2.8,3.32c8.09,6.76,11.74,15.85,13.82,25.82
	c0.44,2.09,1.67,4.11,1.68,6.17c0.02,4.77-3.39,7.28-7.2,9.28c-3.39,1.78-6.99,0.89-8.28-2.12c-3.38-7.87-10.52-8.39-17.16-9.88
	c-12-2.68-14.02-0.9-14.03,11.55c0,3.29,0,6.58,0,9.32c19.1,4.12,33.81,13.04,42.28,30.61c5.05,10.47,10.9,20.65,14.92,31.5
	c3.12,8.41,4.43,17.61,5.71,26.57c2.05,14.38,3.62,28.83,4.98,43.29c0.78,8.32,0.51,16.74,1.17,25.08
	c1.09,13.84,2.66,27.64,3.79,41.47c0.41,4.97-0.1,10,0.21,14.99c0.33,5.43,1.28,10.82,1.64,16.25c0.32,4.89,0.2,9.81,0.29,14.71
	c0.35,18.95,0.87,37.91,0.9,56.86c0,3.05-1.68,6.52-3.59,9.02c-1.19,1.55-4.96,2.86-6.39,2.09c-2.45-1.32-4.64-4.1-5.67-6.75
	c-0.78-2.03,0.74-4.84,0.66-7.28c-0.52-15.66-1.25-31.32-1.79-46.98c-0.2-5.74,0.08-11.49-0.17-17.22
	c-0.15-3.45-0.88-6.87-1.38-10.3c-0.09-0.65-0.6-1.34-0.46-1.9c3.85-15.39-1.98-30.47-1.46-45.85c0.38-11.04-2.62-22.19-4.08-33.3
	c-0.26-1.96-0.57-3.95-0.52-5.92c0.37-15.36,0-30.63-3.69-45.68c-1.64-6.69-2.08-13.74-4.31-20.2c-3-8.71-7.01-17.1-10.96-25.44
	c-2.12-4.47-4.89-8.65-7.62-12.8c-6.43-9.76-15.91-14.09-27.28-14.89c-1.81-0.13-3.61-0.36-5.41-0.61c-4.83-0.66-9-0.59-13.41,2.97
	c-6.55,5.28-14.6,8.69-21.24,13.88c-9.18,7.16-19.65,13.38-23.79,25.37c-0.43,1.24-1.27,2.5-1.22,3.73
	c0.43,10.77,1.02,21.53,1.55,32.29c0.15,2.98,0.2,5.97,0.35,8.96c0.3,5.87,0.9,11.74,0.9,17.6c0,5.96-0.62,11.91-0.89,17.87
	c-0.37,8.12-0.8,16.24-0.98,24.37c-0.17,7.75,0,15.5-0.07,23.26c-0.04,4.22-3.53,8.14-7.2,8.33c-4.02,0.2-7.9-3.38-7.69-8.09
	c0.82-17.61-1.34-35.26,2.43-52.89c1.62-7.57-0.55-15.94-0.91-23.96c-0.29-6.54-0.36-13.09-0.67-19.63
	c-0.23-4.96-0.24-9.99-1.12-14.84c-3.48-19.14-6.42-38.43-11.13-57.27c-6.47-25.87-21.52-46.62-41.46-64.17
	c-8.9-7.84-17.54-15.78-28.68-20.37c-9.17-3.78-18.03-7.98-28.58-6.96c-6.14,0.59-12.48-1.07-18.75-1.47
	c-2.44-0.16-4.93,0.28-7.38,0.6c-1.8,0.23-3.54,0.9-5.34,1.05c-12.86,1.07-26.06,0.61-38.49,3.48c-11.24,2.59-22.07,8.02-32.3,13.62
	c-9.08,4.97-17.29,11.64-25.51,18.02c-9.24,7.17-17.33,15.64-22.72,26.09c-6.15,11.92-11.71,24.16-17.25,36.38
	c-6.96,15.38-7.67,31.77-7.15,48.29c0.04,1.28,0.41,2.74,1.12,3.77c2.12,3.1,1.98,5.98,0.5,9.38c-0.93,2.14-0.59,4.84-0.8,6.96
	c9.35,2.38,18.23,4.78,27.18,6.87c7.33,1.71,13.1-1.44,18.38-6.31c7.98-7.35,12.49-15.83,13.99-27c1.63-12.15,5.78-24.02,9.35-35.85
	c1.99-6.59,4.3-13.29,7.78-19.16c5.88-9.91,16.42-14.86,25.67-20.88c12.65-8.23,26.84-13.21,41.78-15.33
	c5.94-0.84,12.14,0.04,18.22,0.35c6.45,0.32,12.97,0.37,19.3,1.45c13.71,2.34,26.2,6.97,36.94,16.81
	c11.85,10.86,19.75,24.07,26.82,37.99c6.15,12.11,12.74,24.18,17.11,36.96c3.7,10.81,5.11,22.53,6.44,33.98
	c2.16,18.55,4.05,37.18,4.83,55.83c0.48,11.42,3.52,22.2,5.11,33.3c1.76,12.3,2.03,24.81,3.28,37.19
	c0.68,6.73,2.16,13.37,3.08,20.08c1.69,12.26,3.1,24.56,4.89,36.81c1.6,10.94,3.73,21.81,5.26,32.75c0.77,5.5,0.61,11.12,1.12,16.67
	c0.32,3.42,1.03,6.82,1.69,10.2c2.21,11.15,4.53,22.27,6.7,33.43c1.82,9.35,3.2,18.79,5.31,28.07c1.25,5.46,3.38,10.75,5.41,16
	c4.35,11.28,8.74,22.54,13.39,33.7c2.86,6.86,5.46,14.03,9.57,20.11c5.92,8.75,13.11,16.64,19.76,24.89
	c1.43,1.77,2.89,3.52,5.03,6.13c5.41-10.13,10.57-19.72,15.66-29.35c1.32-2.5,1.94-5.54,3.75-7.56c1.62-1.81,4.49-3.66,6.69-3.52
	c3.23,0.19,5.14,3.17,4.54,6.6c-0.62,3.57-1.3,7.29-2.87,10.49c-4.45,9.08-9.31,17.96-14.13,26.85c-3.63,6.7-7.17,13.49-11.32,19.86
	c-2.67,4.1-6.48,7.44-9.58,11.29c-1.83,2.28-3.99,4.67-4.73,7.37c-2.29,8.23-3.97,16.64-5.87,24.98c-1.06,4.65-1.03,8.06,4.75,10.37
	c18.79,7.51,20.26,19.53,19.47,37.67c-0.4,9.3-13.53,17.19-23.53,10.92c-9.78-6.13-15.13-15.01-16.2-26.54
	c-0.32-3.41-1.2-6.76-1.92-10.71c-13.05,3.58-20.04,13.52-27.87,22.05c3.82,5.75,7.51,10.68,10.52,16
	c4.88,8.62,5.55,22.82-3.61,30.76c-4.49,3.9-8.82,4.85-13.59,1.58c-8.34-5.72-14.85-12.59-14.6-23.87c0.1-4.72-1.14-9.49-2.02-14.19
	c-0.15-0.78-1.56-1.83-2.44-1.88c-12.44-0.67-24.71-0.84-34.45,9.11c-2.36,2.42-2.7,4.11-1.41,7.3c2.58,6.37,5.65,12.98,6.09,19.65
	c0.44,6.61,0.07,14.07-5.75,19.38c-5.96,5.44-13.34,6.07-20.05,1.16c-12.06-8.82-19.08-16.89-10.58-36.34
	c0.52-1.19,0.75-2.5,1.09-3.68c-9.05-5.15-25.04,0.18-37.09,11.91c3.02,6.02,5.7,12.06,9.01,17.75c4.86,8.36-2.32,24.17-13.13,27.41
	c-8.63,2.58-16.95,0.07-21.63-7.69c-2.78-4.61-5.05-9.74-6.39-14.93c-1.36-5.26,1.05-10.07,4.66-14.13
	c0.85-0.95,1.45-2.13,2.57-3.82c-13.34-7.11-26.81-8.44-41.14-4.87c2.04,5.12,4.59,10.14,6.05,15.45
	c3.27,11.88-3.36,24.73-14.86,29.33c-2.06,0.82-4.55,0.86-6.83,0.81c-11.44-0.29-19.1-8.56-19.79-19.78
	c-0.52-8.43,2.96-15.14,6.88-21.92c1.32-2.28,2.78-4.48,4.21-6.76c-9.58-12.92-22.76-12.65-36.94-10.97
	c0.57,4.04,1.06,7.92,1.68,11.79c2.49,15.48-6.94,27.56-21.93,29.47c-9.19,1.17-17.55-2.95-21.3-11.71
	c-3.86-9.02-1.75-18.13,4.99-25.44c4.14-4.48,8.96-8.37,13.72-12.22c2.44-1.97,3.39-3.6,1.88-6.71
	c-6.62-13.57-18.85-19.49-32.21-23.78c-0.98-0.31-3.55,1.25-3.84,2.35c-2.57,9.69-10.08,14.02-18.38,17.6
	c-4.21,1.82-8.28,1.91-12.33-0.71c-6.58-4.25-10.84-10.27-10.98-17.93c-0.14-7.25,4.97-12.11,10.9-15.65
	c6.16-3.69,12.5-7.15,20.31-5.33c2.16-8.33-1.87-14.87-4.73-21.59c-0.28-0.67-2.7-1.13-3.68-0.69
	c-15.46,6.94-29.84,15.88-40.91,28.66c-5.31,6.13-8.21,14.7-10.96,22.6c-3.8,10.92-6.3,22.28-9.6,33.38
	c-1.66,5.57-0.3,9.85,3.9,13.73c7.44,6.88,14.81,13.83,21.95,21.01c4.58,4.61,4.76,8.75,1.27,12.25c-2.21,2.21-4.72,3.33-7.6,1.42
	c-2.87-1.91-5.7-3.92-8.33-6.15c-3.36-2.86-6.5-5.99-9.74-9c-0.35,0.24-0.7,0.49-1.05,0.73c0.47,2.36,0.98,4.71,1.4,7.08
	c0.29,1.62,0.72,3.28,0.62,4.89c-0.34,5.01-4.69,9.6-8.69,9.42c-3.92-0.17-6.7-3.96-7.3-9.34c-0.55-4.92-1.46-9.8-2.35-15.62
	c-1.5,1.33-2.66,2.28-3.72,3.33c-4.38,4.34-8.73,8.71-13.1,13.06c-3.04,3.03-6.36,3.63-9.76,0.74c-3.42-2.9-4.3-6.52-1.24-10.07
	c4.44-5.16,9.18-10.07,13.89-15c5.14-5.37,10.87-10.3,12.81-17.94c2.19-8.65,4.15-17.37,6.54-25.97
	c6.59-23.71,14.99-46.25,37.92-59.68c7.73-4.53,14.98-9.86,22.55-14.65c2.58-1.63,3.18-2.94,0.97-5.42
	c-2.08-2.34-3.53-5.24-5.64-7.56c-0.94-1.04-2.9-1.93-4.21-1.72c-13.34,2.11-26.64,4.47-39.96,6.73c-2.93,0.5-5.93,0.65-8.81,1.32
	c-16.28,3.73-26.37,15.05-34.72,28.48c-9.55,15.38-18.44,31.24-29.01,45.88c-5.36,7.42-3.02,13.78-1.47,20.57
	c1.53,6.72,4.08,13.22,6.44,19.73c1.38,3.82,1.63,7.4-1.9,9.89c-3.67,2.58-7.57,1.71-10.3-1.57c-2.17-2.61-3.94-5.76-5.1-8.96
	c-1.68-4.63-2.65-9.51-4.13-15.06c-2.65,5-5.52,8.49-3.28,14.58c2.08,5.64-4.13,8.39-7.89,11.35c-3.05,2.4-6.93,3.21-10.08,0.22
	c-2.38-2.25-4.13-5.05-2.67-8.9c2.87-7.58,5.41-15.29,8.45-23.95c-3.75,0.74-6.9,1.37-10.04,1.99c-4.36,0.86-8.69,2.04-13.09,2.46
	c-3.98,0.37-6.65-2.22-7.76-5.83c-1.17-3.8,1.03-6.65,4.18-8.16c3.54-1.69,7.39-2.82,11.21-3.83c7.51-2.01,15.08-3.78,22.63-5.64
	c0.64-0.16,1.38-0.55,1.92-0.38c6.53,2.09,8.57-2.89,11.13-7.01c11.31-18.19,22.18-36.66,34.06-54.47
	c7.19-10.79,17.55-18.84,29.56-23.69c7.07-2.85,15.07-3.42,22.68-4.86c6.79-1.28,13.61-2.38,20.42-3.48
	C194.17,858.41,198.39,857.87,203.2,857.18z M501.94,506.97c-7.55-1.07-13.95-2.96-20.24-2.61c-7.33,0.4-14.65-3.13-21.92,0.15
	c-0.83,0.37-1.98-0.04-2.98,0.04c-3.92,0.31-7.89,0.41-11.73,1.16c-1.22,0.24-2.88,2.16-3.02,3.45
	c-1.43,13.22-6.04,25.29-12.63,36.71c-0.49,0.86-0.95,1.74-1.35,2.65c-2.19,4.95-3.85,10.21-6.64,14.78
	c-3.83,6.26-8.52,12-12.95,18.11c7.27,0.27,10.86,2.77,11.4,7.68c0.46,4.2-3.02,9.58-7.26,10.01c-2.16,0.22-4.97-0.9-6.64-2.37
	c-1.79-1.57-2.58-4.28-3.21-5.39c-12.33,11.83-24.97,24.04-37.68,36.15c-18.68,17.8-40.32,31.36-62.66,44
	c-10.68,6.04-21.5,12.12-31.15,19.6c-11.36,8.81-22.11,18.61-32.04,29.01c-9.05,9.46-16.58,20.39-20.91,33.02
	c-2.37,6.9-1.91,6.57,4.33,10.07c2.6,1.46,5.68,5.15,5.56,7.69c-0.18,3.71-3.59,6.65-8.09,6.68c-2.61,0.01-5.23-0.21-8.6-0.36
	c-1.41,17.05-2.87,34.02-0.26,49.67c4.01,0,7.52-0.95,9.9,0.28c2.18,1.13,4.66,4.85,4.33,7.02c-0.8,5.28-5.06,7.8-11.14,7.73
	c3.66,11.82,7.86,22.69,15.86,31.73c8.15,1.37,9.65,9.66,14.64,13.93c9.42,8.07,19.89,15.6,33.45,15.71
	c-2.47-5.63-1.67-9.64,2.37-12.18c3.72-2.34,12.57-1.45,14.64,2c1.14,1.9,1.6,4.86,1.02,6.96c-0.54,1.94-2.88,3.39-4.18,4.8
	c5.74-0.46,11.71-0.69,17.6-1.49c7.19-0.97,14.76-1.3,21.38-3.9c11.96-4.69,24.4-8.09,35.66-15c7.25-4.44,13.26-9.84,19.27-15.47
	c0.92-0.86,0.97-3.34,0.55-4.82c-2.43-8.58-6.14-16.93-7.5-25.66c-2.2-14.17-3.6-28.55-4.01-42.88c-0.29-9.99,1.56-20.06,2.61-30.07
	c1.95-18.56,9.85-35.33,16.62-52.34c3.72-9.32,9.51-17.82,14.28-26.73c3.22-6.01,5.83-12.4,9.54-18.08
	c6.96-10.67,14.73-20.82,21.78-31.44c8.61-12.97,16.88-26.17,25.19-39.34c2.39-3.79,4.41-7.83,6.83-12.16
	c-5.24,0.33-9.77,0.46-10.97-5.3c-0.86-4.12,0.86-7.19,4.6-9.02c3.88-1.91,7.37-0.47,11.78,5.41
	C485.65,553.08,493.71,530.28,501.94,506.97z M510,461.64c0.63-4.08,1.71-7.8,1.69-11.5c-0.12-14.53-2.87-28.72-7.97-42.24
	c-7.27-19.31-16.57-37.71-28.82-54.38c-5.59-7.61-12.1-14.58-21.35-18.2c-12.22-4.78-25.17-5.66-37.95-6.42
	c-18.4-1.1-35.96,3.16-50.2,15.34c-10.9,9.32-19.77,20.41-19.62,36.32c0.07,6.69-1.52,13.41-2.43,20.1
	c-0.29,2.12-0.28,4.52-1.31,6.24c-4.78,7.94-9.58,15.91-14.96,23.44c-3.49,4.88-8,9.03-12.28,13.75c4.69,3.36,9.08,5.89,12.71,9.25
	c5.07,4.69,10.3,9.51,14.15,15.16c5.56,8.16,11.23,15.64,20.3,20.37c4.8,2.5,9.31,3.05,14.34,2.29c8-1.22,15.98-2.58,24-3.61
	c12.26-1.56,23.12-5.84,31.43-15.36c3.82-4.38,8.36-6.85,14.37-6.71c5.94,0.14,11.9,0.07,17.82-0.34
	C479.1,464.12,494.27,462.86,510,461.64z M253.56,921.98c4.81,2.14,9.4,4.52,14.22,6.28c13.74,5.01,23.39,14.66,29.67,27.36
	c2.51,5.07,5.7,5.5,9.82,4.81c15.59-2.61,29.64,0.95,40.94,11.8c4.63,4.45,8.92,4.38,13.7,2.96c18.1-5.41,34.91-1.84,51.29,6.32
	c1.26,0.63,3.62,0.37,4.82-0.44c4.81-3.23,9.42-6.78,14.01-10.32c13.65-10.54,28.8-12.07,44.61-6.56c4.35,1.52,6.4,0.3,9.6-2.04
	c6.75-4.94,13.64-10.08,21.23-13.4c10.53-4.61,21.89-2.27,32.87-0.72c2.94,0.42,4.4-0.2,6.18-2.55
	c10.36-13.7,22.02-25.75,40.05-29.23c0.75-4.54,1.51-9.13,2.38-14.42c-1.66,0.84-2.53,1.27-3.39,1.72
	c-11.43,5.96-22.6,12.51-34.39,17.66c-6.36,2.78-13.76,3.15-20.67,4.69c-16.36,3.64-32.19,8.8-49.67,7.16
	c-14.32-1.35-28.12-2.58-41.55-8.38c-12.09-5.21-23.61-10.65-31.53-21.68c-4.68-6.52-9.46-12.97-14.17-19.42
	c-18.08,17.8-41.1,28.01-65.8,33.59c-24.74,5.59-49.99,7.79-74.23-3.54C253.56,916.55,253.56,919.14,253.56,921.98z M90.19,454.89
	c1.57-0.47,2.61-0.77,3.64-1.09c13.04-4.14,25.94-8.8,39.14-12.29c14.35-3.8,28.97-6.55,43.49-9.68c4.18-0.9,8.4-2.05,12.62-2.17
	c12.3-0.33,24.61-0.2,36.92-0.24c5.91-0.02,11.82,0,18.2,0c-0.67-7.09-0.5-13.71-2.05-19.9c-2.48-9.92-5.35-19.89-9.47-29.21
	c-3.9-8.85-9.06-17.61-17.14-23.3c-6.51-4.58-13.93-8.25-21.45-10.91c-9.03-3.19-18.43-4.38-28.34-2.69
	c-15.4,2.62-27.07,12.11-39.72,19.81c-4.19,2.55-7.96,6-11.41,9.54c-13.27,13.63-16.47,31.87-20.96,49.17
	C90.98,432.32,91.29,443.5,90.19,454.89z M555.73,757.88c-8.15,9.69-15.62,18.79-23.33,27.67c-12.53,14.42-24.89,29-37.91,42.97
	c-17.09,18.34-34.78,36.11-52.14,54.2c-5.35,5.57-10.43,11.4-16.44,17.99c8.5,4.26,15.71,8.2,23.94,9.69c1,0.18,2.48-0.88,3.37-1.74
	c7.39-7.16,15.2-13.97,21.91-21.73c17.59-20.35,34.6-41.2,52.02-61.71c11.51-13.55,23.37-26.8,34.93-40.31
	c0.92-1.07,1.12-3.19,0.89-4.71c-0.37-2.43-1.35-4.77-2.13-7.12C559.25,768.27,557.61,763.47,555.73,757.88z M73.67,479.03
	c0.03,0.86,0.07,1.71,0.1,2.57c8.8,0.67,17.6,1.38,26.41,1.98c2.98,0.2,6-0.07,8.96,0.21c21.45,2.05,42.67-1.01,63.92-2.95
	c7.05-0.65,14.05-3.21,21.02-3.04c11.16,0.26,20.97-4.47,31.41-6.72c6.4-1.38,12.54-4.17,18.61-6.77
	c9.65-4.14,19.14-8.66,28.7-13.01c-2.69-1.73-5.02-2.43-7.39-2.68c-6.15-0.63-12.31-1.14-18.47-1.56
	c-5.52-0.37-11.06-0.82-16.58-0.74c-5.56,0.09-11.1,0.93-16.66,1.2c-9.36,0.46-18.85-0.11-28.06,1.29
	c-16.61,2.52-33.14,5.76-49.51,9.51c-12.05,2.76-23.89,6.55-35.65,10.42C91.4,471.73,82.6,475.57,73.67,479.03z M399.51,852.72
	c6.84-6.37,13.63-12.16,19.78-18.56c8.39-8.73,16.28-17.94,24.42-26.91c10.61-11.69,21.81-22.89,31.76-35.1
	c18.14-22.25,39.75-40.83,61.2-59.59c4.33-3.79,8.24-6.73,6.32-13.42c-1.64-5.71-2.33-11.69-3.7-18.91
	c-12.68,13.12-24.39,25.08-35.92,37.21c-6.61,6.95-12.68,14.42-19.45,21.2c-7.04,7.05-14.87,13.3-21.92,20.33
	c-15.06,15.04-29.71,30.47-44.79,45.49c-4.78,4.76-10.34,8.75-15.62,13c-6.2,4.99-10.02,10.63-6.88,19.1
	C396.59,841.67,397.83,847.01,399.51,852.72z M414.21,887.71c11.81-9.25,19.92-20.18,30.35-28.88c10.15-8.47,18.93-18.66,27.86-28.5
	c11.72-12.91,22.98-26.25,34.49-39.36c14.11-16.09,28.28-32.14,42.39-48.24c0.63-0.72,1.45-1.84,1.29-2.58
	c-1.13-5.21-2.49-10.38-3.87-15.93c-1.23,0.78-2.13,1.2-2.84,1.84c-7.02,6.32-14.02,12.66-20.98,19.05
	c-3.42,3.14-6.94,6.19-10.09,9.59c-5.98,6.43-11.62,13.17-17.58,19.63c-11.95,12.94-23.98,25.8-36.03,38.64
	c-16.81,17.92-33.69,35.75-50.41,53.75c-1.17,1.25-2.16,3.87-1.64,5.27C409.06,877.19,411.65,882.16,414.21,887.71z M391.41,804.62
	c0.6,0.27,1.2,0.54,1.79,0.81c5.51-4.92,11.28-9.58,16.48-14.8c15.69-15.76,31.11-31.8,46.74-47.63
	c11.42-11.57,23.52-22.52,34.39-34.58c14.03-15.57,28.71-30.4,44.54-44.11c0.61-0.52,1.61-1.23,1.56-1.77
	c-0.48-4.95-1.15-9.88-1.83-15.35c-6.24,5.03-12.02,9.21-17.26,13.99c-14.87,13.54-29.59,27.25-44.25,41.02
	c-13.94,13.08-27.72,26.34-41.61,39.47c-5.42,5.12-11.12,9.95-16.38,15.23c-5.7,5.73-11.01,11.85-16.56,17.73
	c-0.88,0.94-2.1,1.76-3.31,2.15c-3.38,1.1-4.68,3.65-4.69,6.78C390.99,790.58,391.26,797.6,391.41,804.62z M470.06,915.04
	c6.18,0.57,11.5,0.77,16.72,1.61c5.25,0.85,8.75-0.65,11.66-5.26c2.45-3.89,5.83-7.24,9.07-10.57c8.14-8.35,17.09-16,24.54-24.91
	c15.11-18.09,29.51-36.79,44.01-55.38c1.35-1.74,2.44-4.93,1.77-6.76c-1.86-5.07-4.72-9.77-7.63-15.49
	C536.04,836.9,507.15,879.19,470.06,915.04z M396.18,752.65c0.44,0.22,0.88,0.45,1.33,0.67c2.21-2.42,4.25-5.04,6.66-7.24
	c8.57-7.83,17.45-15.33,25.87-23.31c19.55-18.54,38.71-37.49,58.41-55.87c11.64-10.86,24.07-20.88,36.02-31.43
	c2.7-2.38,6.73-5.25,6.91-8.1c0.43-6.78-1.09-13.69-1.82-20.6c-7.45,7.03-14.34,13.24-20.9,19.79
	c-10.32,10.3-20.28,20.95-30.62,31.22c-11.65,11.58-23.59,22.86-35.32,34.36c-6.86,6.72-13.48,13.69-20.36,20.4
	c-3.94,3.84-7.4,8.79-14.42,7.66C404.02,731.03,400.1,741.84,396.18,752.65z M427.4,682.45c0.37,0.29,0.74,0.59,1.11,0.88
	c0.73-0.68,1.45-1.35,2.18-2.03c13.2-12.43,26.44-24.83,39.59-37.31c7.72-7.33,15.55-14.58,22.91-22.27
	c9.99-10.44,19.51-21.33,29.37-31.9c4.22-4.52,4.76-12.76,0.67-18.04c-15.21,15.13-30.35,30.31-45.67,45.3
	c-2.02,1.98-5.02,2.94-7.5,4.48c-1.92,1.19-4.34,2.15-5.51,3.9c-7.99,12.02-15.69,24.23-23.54,36.35
	C436.52,668.72,431.93,675.57,427.4,682.45z M612.19,307.67c9.36-14.44,22.55-9.62,35.48-7.88c-1.73-1.81-3.57-3.79-5.69-4.15
	c-4.55-0.78-9.36-0.17-13.82-1.21c-2.85-0.66-6.7-2.79-7.44-5.11c-0.75-2.35,0.91-6.85,3.01-8.49
	c11.87-9.28,24.97-15.79,40.68-14.84c1.54,0.09,3.1-0.21,4.95-0.36c-2.86-4.43-16.4-9.06-21.83-7.73
	c-8.1,1.99-14.35,6.42-18.75,13.71c-4.78,7.92-10.3,9.02-17.56,4.12c-8.03,8.18-10.81,8.01-17.63-1.03
	c-0.2-0.27-0.41-0.52-0.61-0.79c-4.78-6.34-7.13-7.07-14.91-4.54c8.24,5.44,16.45,10.74,24.54,16.23c6.77,4.59,7.16,7.45,2.24,14.19
	C607.09,302.18,609.33,304.6,612.19,307.67z M520.48,910.24c8.08-0.71,16.01-1.28,21.81-8.4c9.83-12.07,20.17-23.73,30.14-35.69
	c6.36-7.63,12.76-15.26,18.56-23.31c4.14-5.76,3.23-7.4-4.14-10.53C565.76,858.93,546.03,886.94,520.48,910.24z M505.7,478.56
	c-1.76,0-3.57-0.06-5.36,0.01c-16.38,0.65-32.77,1.4-49.15,1.97c-6.73,0.23-7.99,1.64-6.62,8.81c2.23-0.26,4.49-0.74,6.75-0.76
	c13.21-0.07,26.43-0.04,39.64-0.01c0.98,0,1.95,0.33,2.93,0.43C503.37,489.89,506.5,488.47,505.7,478.56z M218.99,224.88
	c-3.24-4.57-12.23-9.59-16.55-9.09c-10.6,1.23-20.34,4.88-28.79,11.4c-4.45,3.44-9.91,6.32-10.46,12.86
	C179.58,227.23,199.49,227.55,218.99,224.88z M585.04,232.97c9.92,11.52,20.85,21.39,27.25,35.43
	C617.22,244.18,608.67,233.01,585.04,232.97z M157.45,248.05c-2.89-0.31-6.11,0.19-8.19-1.12c-2.17-1.36-3.25-4.45-4.7-6.62
	c-1.93,2.77-3.9,5.59-5.64,8.08c0.46,3.72,0.91,7.34,1.38,11.16c6.64-0.8,12.65,0.34,16.98,6.28c1.97-1.88,3.7-3.54,5.66-5.4
	C157.8,257.1,155.12,253.12,157.45,248.05z M606.21,852.73c-0.59-0.14-1.18-0.27-1.77-0.41c-11.11,13.61-22.22,27.21-34.09,41.75
	c18.1-7.07,27.25-20.88,34.6-36.35C605.67,856.2,605.81,854.4,606.21,852.73z M492.25,580.47c0.91-0.73,1.72-1.28,2.41-1.95
	c7.54-7.27,14.88-14.76,22.65-21.78c4.68-4.22,5.25-8.96,3.93-15.41c-5.1,6.27-9.6,11.98-14.3,17.53c-1.78,2.1-3.74,4.29-6.08,5.63
	C496.27,567.12,491.95,574.37,492.25,580.47z M288.19,985.73c-0.7-0.25-1.4-0.5-2.1-0.74c-2.64,3.1-5.74,5.93-7.72,9.41
	c-1.11,1.94-1.36,5.75-0.16,7.25c1.22,1.53,4.9,2.08,7.1,1.51c1.51-0.39,3.15-3.35,3.32-5.28
	C288.97,993.88,288.39,989.79,288.19,985.73z M118.04,202.49c5.12,3.57,10.18,6.48,14.48,10.26c4.13,3.64,7.46,8.17,11.04,12.2
	C140.05,208.73,133.24,200.69,118.04,202.49z M350.72,1001.83c-1.82,4.58-3.51,8.45-4.88,12.44c-0.93,2.73-0.62,5.44,2.8,6.17
	c3.08,0.65,5.77,0.28,6.75-3.67C356.75,1011.27,355.37,1006.73,350.72,1001.83z M126.03,245.94c-7.97-5.16-23.49-3.49-28.28,2.65
	C106.86,247.73,116.65,246.82,126.03,245.94z M604.14,937.61c1.05,7,1.43,13.78,8.15,18.06C613.16,945.9,610.55,940.1,604.14,937.61
	z M423.84,1020.95c0.4-0.52,0.8-1.04,1.2-1.56c-1.66-4.01-3.32-8.03-5.2-12.59c-3.42,4.28-5.72,8.04-2.52,12
	C418.52,1020.3,421.6,1020.28,423.84,1020.95z M509.2,530.99c8.7-7.79,9.51-10.73,6.96-23.33
	C513.87,515.33,511.7,522.63,509.2,530.99z M483.01,990.31c-4.29,6.16-3.44,10.55,2.36,14.62
	C488.15,999.69,487.16,994.9,483.01,990.31z M232.63,935.87c-3.54,1.2-6.4,1.87-8.94,3.17c-0.94,0.48-1.77,2.62-1.47,3.65
	c0.25,0.83,2.32,1.68,3.5,1.58C229.81,943.93,231.57,941.03,232.63,935.87z M580.03,298.9c0.23,0.61,0.45,1.22,0.68,1.82
	c2.79-0.81,5.57-1.62,8.36-2.43c-0.21-0.68-0.43-1.36-0.64-2.03C585.63,297.14,582.83,298.02,580.03,298.9z"/>
<path d="M418,33.41c15.09,1.99,31.48,3.25,47.43,6.62c7.96,1.68,15.45,6.66,22.55,11.12c23.33,14.64,43.98,32.68,63.75,51.75
	c4.12,3.97,4.32,8.25,0.11,12.7c-3.06,3.24-6.54,6.14-10.08,8.89c-10.6,8.23-21.38,16.23-31.98,24.47
	c-10.62,8.26-22.29,14.84-35.16,18.25c-16.08,4.26-32.52,7.25-48.91,10.13c-4.73,0.83-9.9-0.32-14.8-1.04
	c-11.91-1.77-23.9-3.28-35.62-5.93c-9.3-2.1-18.33-5.51-27.33-8.77c-8.42-3.05-16.79-6.32-24.88-10.14
	c-6.72-3.17-12.88-7.54-19.54-10.87c-3.77-1.88-7.97-3.33-12.13-3.91c-6.83-0.96-10.07-4.45-10.61-11.42
	c-0.59-7.58,1.02-13.17,8.85-16.34c3.12-1.26,5.47-4.62,7.96-7.22c19.49-20.3,39.06-40.72,64.83-53.07
	c11.24-5.39,23.64-8.51,35.69-12.03C404.06,34.88,410.42,34.58,418,33.41z M299.08,119.55c14.03,7.41,26.46,14.29,39.19,20.57
	c7.42,3.66,15.11,7.12,23.05,9.26c12.42,3.35,25.13,5.61,37.77,8.12c7.59,1.51,15.21,3.1,22.89,3.71c4.67,0.37,9.51-0.86,14.22-1.7
	c11.69-2.09,23.59-3.51,34.95-6.76c16.48-4.72,30.75-13.81,43.46-25.4c5.01-4.57,10.44-8.79,16.1-12.52c4-2.63,4-5.05,0.96-7.83
	c-5.75-5.26-11.44-10.65-17.68-15.29c-12.37-9.22-25.03-18.05-37.69-26.87c-6.14-4.28-12.57-7.71-20.4-8.41
	c-9.05-0.81-17.96-3.06-27-3.9c-8.57-0.8-17.51-2.04-25.8-0.47c-13.74,2.6-27.42,6.04-39.69,13.7
	c-13.44,8.39-26.51,17.04-37.68,28.43C317.57,102.48,308.88,110.26,299.08,119.55z"/>
<path d="M254.7,155.63c-4.79-0.23-8.07-2.09-9.4-6.47c-1.26-4.14,1.65-6.11,4.59-7.79c2.54-1.45,5.17-3.31,7.94-3.67
	c6.25-0.82,9.9,4.63,7.35,10.44C263.13,152.82,259.41,155.22,254.7,155.63z"/>
<path d="M617.88,178.6c-0.02-6.17,2.87-9.91,7.79-10.05c4.49-0.12,9.24,5.3,9.22,10.51c-0.02,4.15-5.85,9.61-10.1,9.46
	C620.91,188.37,617.9,184.05,617.88,178.6z"/>
<path d="M233.88,168.93c-0.03,4.76-5.06,9.74-9.68,9.61c-4.57-0.13-8.42-3.95-8.31-8.24c0.12-4.68,4.66-8.8,9.68-8.8
	C230.22,161.49,233.91,164.79,233.88,168.93z"/>
<path d="M608.91,150.39c-0.15,4.58-4.24,8.33-8.87,8.14c-4.62-0.19-8.25-3.84-8.22-8.28c0.03-4.46,4.54-8.79,9.09-8.72
	C605.58,141.6,609.07,145.46,608.91,150.39z"/>
<path d="M200.6,197.57c-4.46-0.11-7.78-3.79-7.74-8.58c0.03-4.68,3.86-8.42,8.61-8.43c4.14,0,8.57,4.34,8.38,8.22
	C209.63,193.19,204.91,197.68,200.6,197.57z"/>
<path d="M570.94,118.55c4.27,0.06,9.03,4.71,8.83,8.64c-0.17,3.38-5.35,7.43-9.46,7.39c-4.48-0.05-8.52-4-8.37-8.18
	C562.07,122.61,566.8,118.49,570.94,118.55z"/>
<path d="M412.88,196.76c-0.09-4.15,5.22-8.86,10.21-9.06c2.68-0.11,6.71,3.71,6.73,6.38c0.02,3.75-6.56,10.35-10.34,10.37
	C416.56,204.47,412.96,200.28,412.88,196.76z"/>
<path d="M251.16,841.12c-0.2,6.44-3.43,10.48-8.32,10.43c-5.03-0.05-8.18-4.41-8.04-11.13c0.11-5.35,3.66-9.01,8.62-8.88
	C248.36,831.67,251.35,835.36,251.16,841.12z"/>
<path d="M311.13,774.6c-5.4-0.06-11.16-4.92-11.23-9.48c-0.06-4.09,4.58-8.52,8.93-8.54c4.64-0.02,10.22,5.93,10.06,10.75
	C318.75,771.88,315.79,774.65,311.13,774.6z"/>
<path d="M246.82,775.42c-0.08-5.86,3.29-9.92,8.23-9.88c5.06,0.04,8.76,3.45,8.89,8.18c0.14,4.94-4.68,10.6-9.19,10.82
	C250.52,784.75,246.9,780.58,246.82,775.42z"/>
<path d="M260.91,878.34c0.11,4.48-3.43,8.2-7.97,8.4c-5.1,0.22-9.86-3.98-10.09-8.89c-0.2-4.37,4.09-8.96,8.66-9.26
	C256,868.29,260.79,873.26,260.91,878.34z"/>
<path d="M282.39,838.56c4.43-0.02,9.55,4.68,9.4,8.64c-0.15,4.1-5.45,8.43-10.27,8.38c-4.31-0.04-8.74-4.43-8.64-8.54
	C273,842.9,277.83,838.58,282.39,838.56z"/>
<path d="M322.27,826.52c4.74-0.04,8.5,3.36,8.63,7.8c0.14,4.82-4.68,9.72-9.48,9.65c-4.39-0.06-8.45-3.96-8.49-8.16
	C312.86,831.29,317.63,826.56,322.27,826.52z"/>
<path d="M350.81,765.61c-0.03-5.21,3.53-8.98,8.53-9.05c4.24-0.06,8.68,4.42,8.57,8.66c-0.12,4.86-4.58,9.44-9.12,9.36
	C354.22,774.5,350.84,770.7,350.81,765.61z"/>
<path d="M347.13,737.3c0.02,5.78-3.54,10.36-7.97,10.26c-4.37-0.1-8.41-5.09-8.3-10.24c0.1-4.44,4.38-8.79,8.6-8.75
	C343.77,728.6,347.11,732.41,347.13,737.3z"/>
<path d="M315.9,866.73c0.11-4.96,4.61-9.44,9.29-9.23c4.46,0.2,8.83,4.52,8.73,8.65c-0.11,4.43-5.09,8.62-10.04,8.42
	C319.29,874.4,315.81,870.97,315.9,866.73z"/>
<path d="M341.88,887.18c-0.08,4.13-5.17,8.58-9.58,8.37c-4.27-0.2-8.47-4.65-8.43-8.94c0.04-4.57,4.03-8.23,8.84-8.11
	C337.52,878.63,341.97,882.84,341.88,887.18z"/>
<path d="M242.38,731.47c4.91-0.07,8.61,3.48,8.6,8.25c-0.01,4.94-4.33,9.88-8.63,9.85c-4.26-0.03-8.49-5.06-8.43-10.04
	C233.98,735.24,237.86,731.53,242.38,731.47z"/>
<path d="M383.9,661.25c-0.09-4,4.11-8.5,8.11-8.68c4.45-0.2,9.91,4.35,9.84,8.21c-0.06,3.88-5.97,9.45-10.21,9.64
	C388.39,670.56,384,665.35,383.9,661.25z"/>
<path d="M349.88,820.19c0.31-4.77,4.49-8.21,9.59-7.87c3.74,0.24,8.39,4.66,8.32,7.91c-0.09,4.17-5.97,9.53-10.19,9.29
	C353.26,829.28,349.58,824.84,349.88,820.19z"/>
<path d="M373.89,868.36c-0.1,4.26-4.15,8.17-8.47,8.19c-4.63,0.02-9.69-4.88-9.5-9.21c0.17-3.74,4.91-7.81,9.08-7.8
	C370.02,859.55,374.01,863.51,373.89,868.36z"/>
<path d="M308.44,730.52c4.59,0.01,9.36,4.04,9.42,7.96c0.06,4.06-5.17,8.12-10.43,8.09c-4.42-0.02-8.6-4.02-8.5-8.13
	C299.03,734.71,304.05,730.52,308.44,730.52z"/>
<path d="M274.96,802.3c5.33,0.25,9.13,3.91,8.94,8.6c-0.19,4.6-4.12,7.92-9.14,7.72c-4.56-0.18-8.89-4.64-8.83-9.1
	C265.97,805.58,270.33,802.08,274.96,802.3z"/>
<path d="M330.98,705.86c0,5.76-2.39,8.71-7.08,8.71c-4.48,0-8.98-4.71-9.02-9.44c-0.03-4.2,4.46-8.68,8.59-8.56
	C327.78,696.68,330.97,700.63,330.98,705.86z"/>
<path d="M465.9,542.35c0.08-4.52,4.92-8.92,9.66-8.79c3.79,0.1,8.25,4.35,8.31,7.91c0.07,4.06-5.8,9.24-10.24,9.04
	C469.38,550.32,465.82,546.56,465.9,542.35z"/>
<path d="M393.94,696.44c0.03,4.12-2.85,7.17-6.71,7.1c-4.85-0.09-10.93-5.08-11.18-9.2c-0.2-3.19,4.76-7.79,8.41-7.81
	C388.89,686.52,393.9,691.76,393.94,696.44z"/>
<path d="M278.93,711.08c-0.02,4.94-3.99,9.45-8.36,9.46c-4.15,0.01-7.69-4.02-7.73-8.8c-0.04-4.66,4.18-9.05,8.81-9.17
	C275.5,702.48,278.94,706.5,278.93,711.08z"/>
<path d="M301.69,806.51c4.78,0.19,8.28,3.69,8.2,8.2c-0.07,3.8-4.33,8.73-7.57,8.75c-4.1,0.03-9.62-5.48-9.43-9.41
	C293.09,809.69,297.02,806.33,301.69,806.51z"/>
<path d="M448.9,584.94c0.07,3.9-5.2,8.34-10.18,8.59c-3.87,0.19-7.81-3.56-7.85-7.5c-0.05-4.18,4.57-8.28,9.55-8.48
	C444.75,577.38,448.83,580.94,448.9,584.94z"/>
<path d="M333.29,795.12c4.67-0.05,8.69,3.89,8.63,8.48c-0.05,4.32-3.58,7.88-7.91,7.99c-5.05,0.12-9-3.27-9.16-7.87
	C324.68,799.11,328.54,795.17,333.29,795.12z"/>
<path d="M296.17,703.54c-4.08-0.13-8.5-5.24-8.28-9.58c0.21-4.03,4.87-8.66,8.42-8.37c4.33,0.36,7.91,4.73,7.7,9.43
	C303.8,699.92,300.34,703.68,296.17,703.54z"/>
<path d="M356.26,701.35c4.34,0.11,7.76,3.69,7.73,8.09c-0.04,4.61-4.41,9.06-8.93,9.08c-3.79,0.02-7.24-4.13-7.18-8.63
	C347.94,704.9,351.54,701.23,356.26,701.35z"/>
<path d="M322.02,683.56c-4.69,0.08-8.2-3.64-8.2-8.68c0-4.42,3.38-8.19,7.5-8.35c4.42-0.18,8.6,3.94,8.59,8.47
	C329.9,679.68,326.38,683.49,322.02,683.56z"/>
<path d="M441.04,557.66c-5.55-0.04-8.3-2.6-8.24-7.65c0.06-4.66,3.71-8.54,7.96-8.45c4.06,0.09,9.08,4.85,9.05,8.59
	C449.77,554.56,446.09,557.7,441.04,557.66z"/>
<path d="M368.41,645.57c-4.67-0.03-7.6-2.63-7.52-6.66c0.09-4.16,4.76-8.51,8.95-8.34c5.06,0.21,9.02,3.48,9.05,7.48
	C378.92,642.46,374.52,645.62,368.41,645.57z"/>
<path d="M331.8,790.74c-5.08,0.04-8.02-2.7-7.93-7.4c0.08-4.24,4.42-8.57,8.76-8.75c3.43-0.14,8.31,4.63,8.23,8.05
	C340.77,787.08,336.72,790.7,331.8,790.74z"/>
<path d="M224.54,808.57c-4.67-0.2-8.02-3.89-7.72-8.51c0.28-4.32,3.94-7.65,8.3-7.54c4.21,0.11,8.92,4.88,8.68,8.79
	C233.55,805.37,229.22,808.77,224.54,808.57z"/>
<path d="M364.95,673.49c0.04,3.71-4.12,8.75-7.39,8.95c-3.77,0.23-8.62-4.29-8.76-8.15c-0.17-4.88,3.54-8.81,8.26-8.76
	C361.46,665.57,364.9,669.04,364.95,673.49z"/>
<path d="M345.14,861.63c-4.79-0.01-7.27-2.54-7.33-7.49c-0.05-4.75,3.76-8.73,8.32-8.67c4.22,0.05,7.75,3.4,7.85,7.45
	C354.1,857.87,350.27,861.64,345.14,861.63z"/>
<path d="M376.97,742.29c0.04,4.46-4.67,9.05-9.38,9.16c-3.16,0.07-7.65-4.56-7.65-7.88c0-3.79,5.22-8.19,9.72-8.18
	C374.03,735.39,376.93,738.13,376.97,742.29z"/>
<path d="M276.99,750.15c-0.03,3.95-4.61,8.54-8.36,8.38c-4.06-0.18-7.79-4.08-7.85-8.21c-0.07-4.33,3.85-8.61,7.98-8.72
	C272.51,741.5,277.02,746.17,276.99,750.15z"/>
<path d="M457.65,529.67c-4.91,0.11-8.59-2.7-8.8-6.73c-0.22-4.15,3.3-7.42,8.08-7.52c5.48-0.11,10.02,3.41,9.91,7.7
	C466.76,526.55,462.53,529.56,457.65,529.67z"/>
<path d="M403.44,627.89c-4.37,0.04-8.49-3.51-8.52-7.35c-0.03-4.35,3.77-7.98,8.4-8.02c4.58-0.04,8.45,3.54,8.54,7.9
	C411.94,624.22,407.85,627.84,403.44,627.89z"/>
<path d="M432.7,619.53c4.64-0.03,8.17,3.14,8.21,7.37c0.04,4.17-3.91,7.66-8.68,7.67c-4.15,0.01-8.42-3.96-8.26-7.67
	C424.12,623.6,428.91,619.55,432.7,619.53z"/>
<path d="M424.9,654.05c-0.07,4.17-4.1,7.58-8.89,7.52c-4.4-0.05-7.45-3.24-7.32-7.65c0.13-4.67,3.28-7.58,8.08-7.48
	C421.39,646.54,424.97,649.9,424.9,654.05z"/>
<path d="M284.73,791.57c-4.18,0.02-7.83-3.44-7.83-7.4c0-4.1,4.16-7.72,8.85-7.69c4.54,0.03,7.24,2.65,7.22,7
	C292.95,788.11,289.45,791.55,284.73,791.57z"/>
<path d="M407.82,438.77c-17.56-1.54-34.8-4.33-50.87-12.1c-8.92-4.31-10.47-9.19-6.02-17.81c6.15-11.92,12.03-23.97,18.18-35.89
	c4.73-9.17,12.16-15.58,21.26-20.28c15.81-8.17,40.45-4.12,54.18,8.92c5.54,5.26,11.61,9.99,16.93,15.46
	c5.06,5.21,9.78,10.83,14.05,16.71c3.38,4.66-0.14,11.55-6.25,14.54c-2.99,1.46-6,3.48-8.13,5.98c-10.04,11.79-22.6,19.43-37.51,23
	C418.56,438.53,413.12,438.32,407.82,438.77z M406.96,365.61c-3.35,1.69-8.48,2.73-11.08,5.87c-9.91,11.96-11.71,26.07-3,39.91
	c0.91,1.44,2.9,2.88,4.53,3.06c5.99,0.65,12.1,1.41,18.07,0.95c10.14-0.78,19.25-12.68,17.06-21.97c-1.5-6.38-3.59-12.66-5.99-18.75
	c-0.88-2.23-3.11-4.62-5.3-5.5C417.19,367.54,412.7,366.96,406.96,365.61z M455.39,399.23c-4.13-4.31-7.43-7.74-9.38-9.78
	c-0.63,6.13-1.42,13.94-2.26,22.1C447.84,407.22,452.06,402.75,455.39,399.23z M373.08,398.89c-2.74,5.33-4.73,9.2-6.94,13.51
	c3.76,1.24,7.02,2.31,10.35,3.4C375.34,410.09,374.35,405.2,373.08,398.89z"/>
</svg>
